<?xml version="1.0" standalone="no"?>
<!DOCTYPE svg PUBLIC "-//W3C//DTD SVG 20010904//EN"
 "http://www.w3.org/TR/2001/REC-SVG-20010904/DTD/svg10.dtd">
<svg version="1.0" xmlns="http://www.w3.org/2000/svg"
 width="700.000000pt" height="700.000000pt" viewBox="0 0 700.000000 700.000000"
 preserveAspectRatio="xMidYMid meet">
<metadata>
Created by potrace 1.11, written by Peter Selinger 2001-2013
</metadata>
<g transform="translate(0.000000,700.000000) scale(0.100000,-0.100000)"
fill="#000000" stroke="none">
<path d="M3457 6387 c-4 -12 10 -47 23 -57 22 -17 145 -181 157 -210 28 -65
19 -270 -14 -346 -9 -21 -17 -41 -17 -44 -1 -3 -14 -27 -30 -53 -15 -27 -30
-66 -32 -86 -4 -32 0 -43 31 -74 20 -20 50 -44 68 -54 37 -19 77 -25 77 -12 0
5 6 9 13 9 6 0 17 10 23 23 6 12 26 51 46 87 39 70 75 167 84 227 3 21 10 56
16 77 24 95 -17 210 -106 296 -74 71 -72 70 -131 110 -27 19 -52 38 -53 43 -2
4 -8 5 -13 1 -5 -3 -9 -1 -9 5 0 12 -79 60 -108 66 -12 2 -23 -2 -25 -8z"/>
<path d="M4462 5591 c-194 -116 -374 -265 -514 -423 -97 -109 -176 -254 -206
-378 -9 -35 -8 -264 2 -330 18 -134 62 -264 139 -410 62 -118 83 -159 93 -185
12 -34 10 -137 -4 -205 -7 -36 -15 -76 -17 -90 -2 -14 -9 -38 -15 -55 -17 -44
-22 -76 -15 -102 14 -56 74 -7 170 140 46 72 103 180 110 211 1 6 5 18 8 26
18 42 35 145 35 216 1 138 -39 277 -143 499 -83 178 -71 320 41 505 62 104
169 244 299 395 140 162 151 179 137 211 -7 13 -18 24 -25 24 -8 0 -50 -22
-95 -49z"/>
<path d="M3321 5498 c-45 -12 -91 -47 -91 -70 0 -10 4 -18 10 -18 11 0 103
-62 108 -72 2 -5 8 -8 13 -8 5 0 66 -39 136 -88 71 -48 144 -97 163 -109 l36
-22 12 28 c7 16 14 39 15 52 2 35 -12 99 -23 99 -6 0 -10 5 -10 11 0 23 -184
166 -205 160 -4 -2 -11 3 -15 9 -12 20 -110 38 -149 28z"/>
<path d="M3166 5301 c-3 -22 -8 -46 -11 -53 -4 -10 55 -56 190 -147 l195 -132
45 32 c25 18 45 36 45 41 0 5 -4 7 -9 4 -5 -4 -11 -3 -13 2 -4 10 -106 82
-116 82 -5 0 -17 8 -28 18 -20 18 -221 154 -239 161 -5 2 -16 10 -23 18 -21
21 -29 16 -36 -26z"/>
<path d="M3076 5103 c-15 -25 -24 -49 -19 -53 22 -19 265 -180 273 -180 4 0
10 -3 12 -7 2 -5 18 -19 37 -32 l34 -24 18 24 c24 32 43 68 38 73 -4 3 -335
226 -354 238 -6 4 -22 -12 -39 -39z"/>
<path d="M2976 4965 c-2 -7 -29 -29 -59 -48 -90 -58 -151 -137 -162 -212 -13
-80 53 -176 170 -249 28 -17 52 -31 55 -32 3 0 19 -7 35 -14 17 -7 57 -14 91
-14 49 -1 67 4 96 23 64 44 112 131 125 226 3 21 12 49 19 61 16 24 13 27
-110 109 -96 65 -110 74 -133 86 -13 7 -23 16 -23 21 0 4 -6 8 -13 8 -7 0 -22
8 -33 18 -28 26 -51 33 -58 17z"/>
<path d="M2733 4411 c-10 -15 -37 -56 -60 -90 -69 -103 -91 -218 -68 -361 23
-147 202 -319 508 -489 55 -30 151 -61 192 -61 78 0 50 47 -85 140 -66 46
-125 101 -167 155 -45 59 -112 203 -118 255 -3 25 -7 59 -10 75 -18 116 -22
151 -19 160 2 6 5 26 8 46 3 20 8 43 12 52 15 41 -77 128 -149 141 -20 3 -30
-2 -44 -23z"/>
<path d="M5101 3624 c-140 -29 -273 -82 -296 -118 -29 -44 -1 -71 75 -75 130
-6 290 -53 362 -106 167 -122 128 -296 -121 -546 -79 -80 -230 -206 -326 -273
-79 -56 -85 -62 -85 -94 0 -34 38 -47 97 -33 96 23 270 84 373 129 305 134
484 299 539 497 36 129 -18 365 -106 464 -13 14 -23 29 -23 33 0 16 -108 87
-165 108 -73 28 -227 34 -324 14z"/>
<path d="M2537 3553 c-1 0 -42 -4 -92 -7 -108 -7 -201 -18 -265 -31 -14 -3
-38 -8 -55 -11 -44 -7 -141 -33 -173 -45 -15 -6 -28 -10 -30 -9 -7 2 -95 -52
-121 -76 -32 -28 -61 -90 -61 -130 0 -38 27 -95 63 -132 85 -88 323 -170 572
-197 33 -4 71 -8 85 -11 155 -25 953 -25 1088 0 9 2 47 7 84 10 37 4 77 9 90
11 13 2 52 9 88 15 61 9 112 19 135 24 6 2 28 6 50 10 84 17 322 87 390 116
136 57 280 136 318 174 24 24 22 63 -4 77 -17 8 -37 7 -88 -5 -73 -17 -83 -19
-221 -41 -107 -18 -156 -24 -219 -30 -24 -2 -69 -6 -100 -9 -172 -18 -143 -16
-456 -32 -296 -15 -939 -8 -1105 11 -19 3 -55 7 -80 10 -89 10 -170 29 -167
39 3 8 115 73 135 77 4 1 18 6 32 11 14 5 84 25 155 45 224 60 210 53 208 92
-1 19 -7 38 -15 42 -10 7 -234 9 -241 2z"/>
<path d="M2465 2845 c-277 -75 -374 -207 -245 -332 97 -94 368 -173 690 -199
136 -12 570 -7 570 6 0 3 19 5 43 6 23 0 62 4 87 7 25 4 65 9 90 12 25 3 61 8
80 10 64 8 233 36 339 56 58 11 116 22 130 24 14 2 53 10 86 19 33 8 76 18 95
21 100 17 130 38 115 84 -3 10 -36 39 -73 64 -37 26 -96 67 -132 92 -73 52
-65 51 -230 16 -52 -11 -108 -22 -125 -25 -16 -3 -39 -8 -51 -10 -12 -2 -45
-7 -75 -11 -30 -4 -56 -8 -59 -10 -3 -2 -34 -6 -70 -9 -36 -4 -75 -8 -85 -10
-19 -4 -137 -15 -230 -22 -73 -5 -479 -6 -540 0 -151 14 -195 19 -263 32 -75
14 -124 32 -126 48 0 5 19 24 44 41 49 34 60 63 35 89 -19 19 -33 19 -100 1z"/>
<path d="M2567 2212 c-29 -7 -60 -14 -69 -16 -48 -12 -123 -67 -142 -104 -31
-61 -21 -158 22 -207 59 -68 206 -140 332 -161 14 -3 32 -7 40 -9 8 -3 33 -7
55 -10 22 -4 47 -8 55 -10 8 -3 35 -7 60 -10 25 -3 59 -7 75 -9 106 -14 255
-21 420 -21 194 1 250 5 433 30 137 19 371 80 500 131 100 39 122 61 97 99
-11 18 -188 134 -255 168 -14 6 -38 21 -53 31 -26 18 -34 18 -90 7 -98 -19
-109 -21 -157 -27 -25 -3 -52 -7 -60 -9 -8 -3 -33 -7 -55 -10 -22 -3 -65 -10
-95 -15 -186 -32 -509 -29 -735 6 -22 4 -53 8 -70 10 -57 6 -175 34 -175 41 0
2 5 14 12 26 41 74 -16 101 -145 69z"/>
<path d="M2168 1805 c-2 -2 -48 -6 -103 -10 -55 -3 -111 -8 -125 -10 -14 -2
-58 -7 -97 -10 -40 -3 -83 -8 -95 -11 -24 -4 -63 -11 -111 -20 -15 -2 -53 -11
-85 -20 -31 -8 -61 -16 -67 -17 -5 -2 -40 -16 -76 -33 -106 -51 -148 -110
-141 -203 10 -124 169 -229 437 -287 73 -16 78 -17 160 -29 28 -4 59 -9 70
-11 11 -2 47 -6 80 -9 33 -3 69 -7 80 -10 18 -3 116 -12 245 -21 345 -23 1106
-23 1445 0 33 3 95 7 138 10 43 3 99 8 125 11 26 3 65 7 87 10 102 12 142 17
165 21 14 2 48 6 75 10 40 4 187 31 394 70 14 3 28 7 31 9 4 2 20 6 36 9 109
20 350 106 449 161 100 56 147 116 147 190 0 53 -20 92 -67 134 -42 36 -65 39
-90 11 -17 -18 -17 -25 -6 -56 17 -47 1 -64 -87 -97 -93 -34 -377 -101 -512
-121 -19 -3 -78 -12 -131 -20 -53 -9 -118 -18 -145 -21 -27 -3 -62 -7 -79 -10
-30 -4 -105 -12 -180 -20 -22 -2 -76 -7 -120 -10 -44 -4 -100 -8 -125 -10
-321 -27 -956 -26 -1285 1 -112 9 -257 23 -300 29 -16 2 -52 7 -80 10 -76 10
-105 15 -167 26 -32 5 -70 12 -85 15 -121 21 -267 70 -257 86 19 30 197 92
379 133 66 15 125 31 131 36 9 8 11 30 5 61 -1 7 -58 28 -63 23z"/>
<path d="M5613 1437 c-11 -7 -53 -35 -92 -64 -66 -47 -177 -107 -276 -148 -57
-24 -271 -94 -305 -100 -16 -3 -42 -10 -57 -16 -15 -6 -29 -10 -31 -9 -1 1
-15 -1 -30 -4 -285 -62 -625 -81 -1457 -80 -319 0 -686 4 -815 8 -129 5 -271
9 -315 11 -66 2 -83 -1 -97 -15 -19 -20 -18 -40 1 -63 11 -14 46 -24 142 -42
13 -3 35 -7 49 -10 14 -3 54 -10 90 -15 36 -5 76 -12 90 -14 14 -3 48 -7 75
-11 28 -3 57 -8 65 -10 8 -2 42 -6 75 -9 33 -3 69 -8 80 -10 11 -2 61 -7 110
-11 50 -3 104 -8 120 -10 192 -27 1082 -27 1296 0 14 2 66 7 115 10 49 4 91 8
94 10 3 2 35 6 70 10 36 3 72 8 80 10 8 2 35 7 60 10 25 2 56 7 70 10 14 4 43
8 65 10 75 8 272 63 373 103 120 48 222 113 300 192 54 54 108 142 117 192 10
51 -24 87 -62 65z"/>
</g>
</svg>
